<?xml version="1.0" encoding="UTF-8"?><svg xmlns="http://www.w3.org/2000/svg" width="200" height="115" viewBox="0 0 200 115"><defs><style>.cls-1{fill:#f47b2a;}.cls-2{fill:#fff;}.cls-3{fill:#2b2b2b;}.cls-4{fill:#eabd2d;}</style></defs><g id="Layer_4"><ellipse class="cls-4" cx="98.5" cy="51.5" rx="57.5" ry="47.5"/><ellipse class="cls-1" cx="100.07" cy="48.83" rx="43.93" ry="36.29"/></g><g id="berg1_copy"><polygon class="cls-3" points="44.33 49.19 86 110 2.66 110 44.33 49.19"/><polygon class="cls-2" points="60.49 79.6 44.33 55.91 25.85 84.83 33.77 78.61 33.2 82 40.12 73.52 38.97 79.6 44.33 72.81 45.08 80.87 46.78 72.39 50.74 83.7 51.1 73.52 58.09 84.83 55.83 76.91 60.49 79.6"/></g><g id="berg1_copy_2"><polygon class="cls-3" points="154.33 49.19 196 110 112.66 110 154.33 49.19"/><polygon class="cls-2" points="170.49 79.6 154.33 55.91 135.85 84.83 143.77 78.61 143.2 82 150.12 73.52 148.97 79.6 154.33 72.81 155.08 80.87 156.78 72.39 160.74 83.7 161.1 73.52 168.09 84.83 165.83 76.91 170.49 79.6"/></g><g id="berg1"><polygon class="cls-3" points="96.33 2.5 22.66 110 170 110 96.33 2.5"/><polygon class="cls-2" points="67.77 56.25 96.33 14.37 129 65.5 115 54.5 116 60.5 103.77 45.5 105.81 56.25 96.33 44.24 95 58.5 92 43.5 85 63.5 84.36 45.5 72 65.5 76 51.5 67.77 56.25"/></g></svg>